# xmcd
#
# Track frame offsets:
#	150
#	10907
#	21377
#	33735
#	46847
#	58210
#	73425
#	84725
#	96862
#	109142
#	122017
#	133350
#	143002
#	158705
#	168175
#	178250
#	186537
#	198152
#
# Disc length: 2807 seconds
# Revision: 2
# Processed by: cddbd v1.5.2PL0 Copyright (c) Steve Scherf et al.
# Submitted via: dBpowerAMP V12.0
#
DISCID=0e0af512
DTITLE=Various Artist - Country (1996) 4CDs - CD3
DYEAR=1996
DGENRE=International USA English Oldies Country Vocal Guitar Banjo LineDance
TTITLE0=Roger Miller - King of the road (1964)
TTITLE1=Jim Nesbett - Running bare (1969 Traditional)
TTITLE2=Johnny Cash - I walk the line (1956)
TTITLE3=Kenny Rogers - Ruby (1969 Johnny Darrell 1967)
TTITLE4=Waylon Jennings - Sally was a good old girl (1964 Cover Hank Cochran 1962)
TTITLE5=Thomas Conley Earl - The night they drove old Dixie down (1971 Cover The band 1969)
TTITLE6=Ferlin Husky - Country music is there to stay (1959)
TTITLE7=Johnny Dollar - Big big rolling man (1968)
TTITLE8=Billie Jo Spears - What i´ve got in mind (1976)
TTITLE9=Don Williams - Where do we go from here (unknown)
TTITLE10=Stoney Cooper and Wilma Lee - Big midnight special (1959)
TTITLE11=Freddy Fender - Running back (nach 1966? Cover Zambon 1966)
TTITLE12=Billy Joe Royal - Tulsa (1970)
TTITLE13=George Jones - The races is one (1964)
TTITLE14=Patsy Cline - Pick me up on your way down (1958)
TTITLE15=Willie Nelson - You wouldn´t cross the street to say good bye (unknown)
TTITLE16=Frankie Laine - Mule train (1949)
TTITLE17=Glen Campbell - By the time I got to Phoenix (1967 Cover Johnny Rivers 1965)
EXTD=
EXTT0=
EXTT1=
EXTT2=
EXTT3=
EXTT4=
EXTT5=
EXTT6=
EXTT7=
EXTT8=
EXTT9=
EXTT10=
EXTT11=
EXTT12=
EXTT13=
EXTT14=
EXTT15=
EXTT16=
EXTT17=
PLAYORDER=
